<?xml version="1.0" encoding="UTF-8"?>
<svg id="Layer_2" xmlns="http://www.w3.org/2000/svg" width="201" height="201.06" viewBox="0 0 201 201.06">
  <defs>
    <style>
      .cls-1 {
        fill: #9bc2e7;
      }
    </style>
  </defs>
  <g id="Base">
    <polygon points="60.25 0 60.25 30.13 170.87 30.13 170.87 170.94 30.13 170.94 30.13 .06 0 .06 0 170.94 0 201.06 30.13 201.06 170.87 201.06 201 201.06 201 170.94 201 30.13 201 .06 201 0 60.25 0"/>
  </g>
  <g id="Queue">
    <path class="cls-1" d="M138.61,87.43h-11.38v-11.53c0-1.45-1.17-2.62-2.62-2.62h-11.11v-10.47c0-1.45-1.17-2.62-2.62-2.62h-48.13c-1.45,0-2.62,1.17-2.62,2.62v48.13c0,1.45,1.17,2.62,2.62,2.62h11.11v10.47c0,1.45,1.17,2.62,2.62,2.62h11.38v11.53c0,1.45,1.17,2.62,2.62,2.62h48.13c1.45,0,2.62-1.17,2.62-2.62v-48.13c0-1.45-1.17-2.62-2.62-2.62ZM73.87,75.9v32.43h-8.49v-42.9h42.9v7.86h-31.79c-1.45,0-2.62,1.17-2.62,2.62ZM79.1,121.42v-42.9h42.9v8.91h-31.52c-1.45,0-2.62,1.17-2.62,2.62v31.37h-8.76ZM136,135.57h-42.9v-42.9h42.9v42.9Z"/>
  </g>
</svg>